<svg xmlns="http://www.w3.org/2000/svg" viewBox="0 0 64 64">
  <rect width="64" height="64" rx="16" fill="#020617"/>
  <path d="M14 40c7 6 14 7 18 14 4-7 11-8 18-14-7 2-13 2-18 8-5-6-11-6-18-8Z" fill="#0ea5e9"/>
  <path d="M16 37c7 1 12 3 16 8 4-5 9-7 16-8-7-1-12 1-16 6-4-5-9-7-16-6Z" fill="#ffffff"/>
  <path d="M20 18h18c8 0 12 4 12 10s-4 10-12 10H28v10h-8V18Zm8 7v6h10c3 0 4-1 4-3s-1-3-4-3H28Z" fill="#ffffff"/>
  <path d="M36 48 48 18h8l12 30h-8l-2-6H46l-2 6h-8Zm12-12h8l-4-11-4 11Z" fill="#0ea5e9" transform="translate(-8 0)"/>
  <path d="M19 15 32 9l13 6-13 6-13-6Z" fill="#0ea5e9"/>
  <path d="M44 16v10" stroke="#0ea5e9" stroke-width="3" stroke-linecap="round"/>
  <circle cx="44" cy="28" r="3" fill="#0ea5e9"/>
</svg>
