<svg xmlns="http://www.w3.org/2000/svg" viewBox="0 0 200 200" fill="none">
  <path d="M42 126c23 16 43 20 58 43 15-23 35-27 58-43-23 7-43 7-58 26-15-19-35-19-58-26Z" fill="#0ea5e9"/>
  <path d="M48 116c21 4 38 12 52 28 14-16 31-24 52-28-21-4-38 3-52 20-14-17-31-24-52-20Z" fill="#ffffff"/>
  <path d="M58 55h52c25 0 39 13 39 32s-14 32-39 32H82v32H58V55Zm24 22v20h28c10 0 15-4 15-10s-5-10-15-10H82Z" fill="#ffffff"/>
  <path d="M101 151 139 55h24l38 96h-25l-7-20h-35l-7 20h-26Zm40-42h21l-10-30-11 30Z" fill="#0ea5e9" transform="translate(-20 0)"/>
  <path d="M58 43 100 25l42 18-42 18-42-18Z" fill="#0ea5e9"/>
  <path d="M142 46v31" stroke="#0ea5e9" stroke-width="8" stroke-linecap="round"/>
  <circle cx="142" cy="84" r="8" fill="#0ea5e9"/>
</svg>
